<?xml version="1.0" encoding="UTF-8" standalone="no"?>
<!-- Created with Inkscape (http://www.inkscape.org/) -->

<svg
   width="20.244282mm"
   height="12.469819mm"
   viewBox="0 0 20.244281 12.469818"
   version="1.1"
   id="svg1"
   xml:space="preserve"
   xmlns="http://www.w3.org/2000/svg"
   xmlns:svg="http://www.w3.org/2000/svg"><defs
     id="defs1" /><g
     id="g2"
     transform="translate(-2.6458333,-3.0371799)"><path
       style="fill:#f3f3f3;stroke:none"
       d="m 15.217198,11.993414 c 6.33e-4,0.819495 -0.143127,1.860192 0.424231,2.534977 1.935312,2.301755 7.379066,0.206383 7.167228,-2.799561 C 22.660683,9.629102 20.112315,8.0002529 18.921364,6.437164 h 3.96875 c -0.08895,-4.1533478 -6.173046,-4.1709632 -7.23174,-0.5281463 -0.788497,2.713108 3.658403,4.1170283 3.100892,6.0106963 -0.394429,1.339738 -2.733763,0.332072 -3.542068,0.0737 z"
       id="path2" /><path
       style="fill:#0cffff;stroke:none"
       d="M 3.1749999,3.1750001 2.6458333,14.816667 c 2.6672159,0 6.2951592,0.633719 8.7312497,-0.646147 C 14.849006,12.346452 15.87351,6.1447701 12.169813,3.9922276 9.6730032,2.5411129 5.9437565,3.1750001 3.1749999,3.1750001 m 3.1749999,9.2604169 c 0,-1.146295 -0.012688,-2.293378 0.00102,-3.4395834 0.00633,-0.5294785 0.011144,-1.0666651 0.1267794,-1.5862747 0.373615,-1.6788473 2.2554612,-2.0645644 3.5159372,-0.9448249 1.6263306,1.4447459 0.8616346,4.5974 -1.0085201,5.442946 -0.8121234,0.367182 -1.7581937,0.457944 -2.6352165,0.527737 z"
       id="path1" /></g></svg>
