<?xml version="1.0" encoding="UTF-8" standalone="no"?>
<!-- Created with Inkscape (http://www.inkscape.org/) -->

<svg
   width="128.02911mm"
   height="12.102593mm"
   viewBox="0 0 128.02911 12.102593"
   version="1.1"
   id="svg1"
   xml:space="preserve"
   xmlns="http://www.w3.org/2000/svg"
   xmlns:svg="http://www.w3.org/2000/svg"><defs
     id="defs1" /><g
     id="g4"
     transform="translate(-24.976277,-70.248689)"><path
       style="fill:#08ffff;stroke:none"
       d="m 25.505443,70.619971 -0.529166,11.377078 c 2.723956,0 6.516548,0.66204 8.994813,-0.67962 3.112049,-1.68478 4.060634,-7.803309 0.783338,-9.843483 -2.493624,-1.552324 -6.443964,-0.853975 -9.248985,-0.853975 m 13.229167,0 -0.529166,11.377078 h 3.704167 L 42.438777,70.619971 H 38.73461 m 16.404168,11.112498 0.264583,-6.35 h -4.7625 l -0.264583,2.38125 h 1.5875 c -0.174291,2.28491 -2.768539,2.48538 -4.047349,0.76497 -1.566581,-2.10756 0.178564,-4.83203 2.459849,-5.386398 1.618164,-0.393225 3.172745,0.174023 4.7625,0.388096 l -0.264584,-2.645833 c -2.743935,-0.346779 -6.016695,-0.799776 -8.466463,0.785584 -3.052307,1.975291 -3.903101,7.377261 -0.525287,9.534591 2.616082,1.67084 6.397285,1.05884 9.256334,0.52774 m 2.38125,-11.112498 -0.264583,11.377078 h 3.704166 l 0.264584,-11.377078 h -3.704167 m 5.027083,0 -0.264583,2.645833 h 3.704167 l -0.529167,8.731245 h 3.704167 l 0.264583,-8.995828 3.439584,0.264583 0.264583,-2.38125 -10.583334,-0.264583 m 9.789584,11.377078 c 2.755295,0 4.467791,-0.0374 5.027084,-3.175 h 4.497916 l 0.793751,3.175 h 3.96875 c -1.016831,-2.63589 -2.044498,-5.27559 -2.991876,-7.937495 -0.334532,-0.939955 -0.550883,-2.550644 -1.413153,-3.167651 -0.814546,-0.582859 -3.410394,-0.506344 -4.157591,0.152299 -0.985304,0.868532 -1.504366,2.653519 -2.086246,3.809102 -1.179995,2.343405 -2.84606,4.639125 -3.638635,7.143745 M 87.947112,70.619971 87.417946,81.997049 h 8.73125 v -2.64583 l -5.027083,0.26458 0.529166,-8.995828 h -3.704167 m -59.266669,8.995828 c 0,-1.05625 -0.0358,-2.11967 0.01041,-3.175 0.03593,-0.82058 0.03605,-2.08495 0.412799,-2.8263 0.551303,-1.084816 2.494274,-0.49307 3.207257,0.101872 1.683844,1.405068 0.905759,4.752268 -0.99525,5.543798 -0.83515,0.34773 -1.747458,0.34829 -2.635218,0.35563 m 51.593752,-6.349995 0.79375,3.174995 h -2.38125 z"
       id="path3" /><path
       style="fill:#f3f3f3;stroke:none"
       d="m 97.972056,78.997142 c 8.3e-5,0.75343 -0.239782,2.10108 0.424231,2.63951 2.088253,1.69327 7.098513,0.20316 7.209283,-2.63951 0.0982,-2.5189 -2.89063,-3.57052 -3.92935,-5.55625 h 3.96875 c -0.0168,-0.81099 0.0592,-2.09218 -0.6784,-2.63848 -1.80407,-1.33617 -6.140111,-0.1064 -6.624588,2.11033 -0.378184,1.73039 0.837654,2.94635 2.014178,4.00224 0.47658,0.4277 1.71078,1.22424 1.46256,2.01132 -0.42015,1.33228 -3.038901,0.36568 -3.846664,0.0708 m 9.525004,2.91042 h 3.175 c 0,-2.3756 0.16618,-4.76811 0.26968,-7.14355 0.037,-0.84956 0.27299,-1.7832 1.31782,-1.75266 2.13571,0.0624 0.75981,2.24583 -0.79375,2.28162 0.39236,4.75507 6.62549,1.2534 5.38353,-2.6446 -0.80784,-2.5355 -4.09037,-2.11803 -6.17728,-2.1179 -0.74163,5e-5 -2.11011,-0.24289 -2.63849,0.42424 -0.54861,0.69268 -0.27193,2.18945 -0.27193,3.01535 0,2.66025 -0.26458,5.28521 -0.26458,7.9375 m 9.26041,0 c 1.04092,0 2.91238,0.35995 3.79706,-0.27194 1.80427,-1.28869 1.04005,-2.9495 3.87566,-2.90184 2.43301,0.0409 1.58026,1.81454 3.05965,2.90184 0.82461,0.60607 2.57945,0.27194 3.55513,0.27194 -0.7704,-2.69492 -2.00421,-5.28031 -2.9096,-7.9375 -0.32131,-0.94304 -0.54444,-2.57985 -1.43459,-3.16745 -0.91367,-0.60313 -3.46655,-0.44422 -4.21843,0.34114 -2.36486,2.47018 -4.36729,7.61327 -5.72488,10.76381 m 24.60625,0 0.26459,-2.64584 c -1.35686,0.17148 -2.90412,0.53919 -4.23313,0.0282 -2.7285,-1.04912 -2.39816,-4.2051 -0.26071,-5.66303 1.49919,-1.02257 3.14427,-0.63958 4.75842,-0.18598 -3.7e-4,-3.41161 -2.83675,-3.55868 -5.82083,-2.63134 -3.94168,1.22493 -5.99,6.70282 -2.6342,9.71854 0.82884,0.74485 1.81714,1.14495 2.89878,1.35415 1.75189,0.33885 3.27821,0.10041 5.02708,0.0253 m 2.64584,-11.37709 -0.79375,11.37709 h 9.26041 l 0.26459,-2.64584 h -5.82084 l 0.26459,-1.85208 h 4.7625 v -2.38125 h -4.7625 c 0.80126,-2.93506 3.37182,-2.04536 5.82083,-1.85208 v -2.64584 h -8.99583 m -19.31459,2.64584 0.79375,3.175 h -2.38125 z"
       id="path4" /></g></svg>
